<svg width="223" height="68" viewBox="0 0 223 68" fill="none" xmlns="http://www.w3.org/2000/svg">
<path d="M2 34V38H18H34V34V30H18H2V34Z" fill="black"/>
<path d="M18 50V54H26H34V50V46H26H18V50Z" fill="black"/>
<path d="M18 18V22H26H34V18V14H26H18V18Z" fill="#FEB900"/>
<path d="M52.9115 22.3869V29.0666H50.6615V12.0041H56.9545C58.8217 12.0041 60.2826 12.4806 61.3373 13.4337C62.3998 14.3869 62.931 15.6486 62.931 17.2189C62.931 18.8752 62.4115 20.1525 61.3724 21.0509C60.3412 21.9416 58.8607 22.3869 56.931 22.3869H52.9115ZM52.9115 20.547H56.9545C58.1576 20.547 59.0795 20.2658 59.7201 19.7033C60.3607 19.133 60.681 18.3127 60.681 17.2423C60.681 16.2267 60.3607 15.4142 59.7201 14.8048C59.0795 14.1955 58.2006 13.8791 57.0834 13.8556H52.9115V20.547ZM73.1498 29.0666C73.0248 28.8166 72.9232 28.3712 72.8451 27.7306C71.8373 28.7775 70.6342 29.3009 69.2357 29.3009C67.9857 29.3009 66.9584 28.9494 66.1537 28.2462C65.3568 27.5353 64.9584 26.6369 64.9584 25.5509C64.9584 24.2306 65.4584 23.2072 66.4584 22.4806C67.4662 21.7462 68.8802 21.3791 70.7006 21.3791H72.8099V20.383C72.8099 19.6252 72.5834 19.0236 72.1302 18.5783C71.6771 18.1252 71.0092 17.8986 70.1263 17.8986C69.3529 17.8986 68.7045 18.0939 68.181 18.4845C67.6576 18.8752 67.3959 19.3478 67.3959 19.9025H65.2162C65.2162 19.2697 65.4388 18.6603 65.8842 18.0744C66.3373 17.4806 66.9467 17.0119 67.7123 16.6681C68.4857 16.3244 69.3334 16.1525 70.2552 16.1525C71.7162 16.1525 72.8607 16.5197 73.6888 17.2541C74.517 17.9806 74.9467 18.9845 74.9779 20.2658V26.1017C74.9779 27.2658 75.1263 28.1916 75.4232 28.8791V29.0666H73.1498ZM69.5521 27.4142C70.2318 27.4142 70.8763 27.2384 71.4857 26.8869C72.0951 26.5353 72.5365 26.0783 72.8099 25.5158V22.9142H71.1107C68.4545 22.9142 67.1263 23.6916 67.1263 25.2462C67.1263 25.9259 67.3529 26.4572 67.806 26.84C68.2592 27.2228 68.8412 27.4142 69.5521 27.4142ZM85.349 19.8556C85.349 19.2619 85.1224 18.7931 84.6693 18.4494C84.2162 18.0978 83.5951 17.922 82.806 17.922C82.0404 17.922 81.3998 18.1212 80.8842 18.5197C80.3763 18.9181 80.1224 19.3869 80.1224 19.9259H77.9662C77.9662 18.8244 78.4271 17.922 79.349 17.2189C80.2709 16.5158 81.4232 16.1642 82.806 16.1642C84.2904 16.1642 85.4467 16.4845 86.2748 17.1252C87.1029 17.758 87.517 18.6642 87.517 19.8439C87.517 20.4142 87.3451 20.9377 87.0013 21.4142C86.6576 21.8908 86.1693 22.2697 85.5365 22.5509C87.0131 23.0509 87.7513 24.0353 87.7513 25.5041C87.7513 26.6681 87.3021 27.59 86.4037 28.2697C85.5052 28.9494 84.306 29.2892 82.806 29.2892C81.3451 29.2892 80.1381 28.9337 79.1849 28.2228C78.2396 27.5041 77.767 26.5353 77.767 25.3166H79.9232C79.9232 25.9337 80.1967 26.465 80.7435 26.9103C81.2982 27.3478 81.9857 27.5666 82.806 27.5666C83.6342 27.5666 84.3021 27.3752 84.8099 26.9923C85.3177 26.6095 85.5717 26.1134 85.5717 25.5041C85.5717 24.7931 85.3568 24.2853 84.9271 23.9806C84.5052 23.6681 83.8451 23.5119 82.9467 23.5119H80.7787V21.6837H83.1342C84.6107 21.6447 85.349 21.0353 85.349 19.8556ZM90.7631 29.0666V16.3869H95.7084C97.3959 16.3869 98.6888 16.6837 99.5873 17.2775C100.494 17.8634 100.947 18.7267 100.947 19.8673C100.947 20.4533 100.771 20.9845 100.419 21.4611C100.068 21.9298 99.5482 22.2892 98.8607 22.5392C99.6263 22.7189 100.24 23.0705 100.701 23.5939C101.169 24.1173 101.404 24.7423 101.404 25.4689C101.404 26.633 100.974 27.5236 100.115 28.1408C99.2631 28.758 98.056 29.0666 96.4935 29.0666H90.7631ZM92.931 23.5002V27.3205H96.517C97.4232 27.3205 98.099 27.1525 98.5443 26.8166C98.9974 26.4806 99.224 26.008 99.224 25.3986C99.224 24.133 98.2943 23.5002 96.4349 23.5002H92.931ZM92.931 21.7658H95.7318C97.7631 21.7658 98.7787 21.172 98.7787 19.9845C98.7787 18.797 97.8177 18.1837 95.8959 18.1447H92.931V21.7658ZM112.478 16.3869H114.646V29.0666H112.478V19.8205L106.63 29.0666H104.462V16.3869H106.63V25.6447L112.478 16.3869ZM127.548 18.1447H123.294V29.0666H121.126V18.1447H116.954V16.3869H127.548V18.1447ZM137.861 16.3869H140.029V29.0666H137.861V19.8205L132.013 29.0666H129.845V16.3869H132.013V25.6447L137.861 16.3869ZM148.771 29.3009C147.052 29.3009 145.654 28.7384 144.576 27.6134C143.497 26.4806 142.958 24.9689 142.958 23.0783V22.6798C142.958 21.422 143.197 20.3009 143.673 19.3166C144.158 18.3244 144.829 17.5509 145.689 16.9962C146.556 16.4337 147.494 16.1525 148.501 16.1525C150.15 16.1525 151.431 16.6955 152.345 17.7814C153.259 18.8673 153.716 20.422 153.716 22.4455V23.3478H145.126C145.158 24.5978 145.521 25.6095 146.216 26.383C146.919 27.1486 147.81 27.5314 148.888 27.5314C149.654 27.5314 150.302 27.3752 150.833 27.0627C151.365 26.7502 151.829 26.3361 152.228 25.8205L153.552 26.8517C152.49 28.4845 150.896 29.3009 148.771 29.3009ZM148.501 17.9337C147.626 17.9337 146.892 18.2541 146.298 18.8947C145.704 19.5275 145.337 20.4181 145.197 21.5666H151.548V21.4025C151.486 20.3009 151.189 19.4494 150.658 18.8478C150.126 18.2384 149.408 17.9337 148.501 17.9337Z" fill="black"/>
<path d="M54.7045 44.5518H53.8564V38.8477H50.7011V44.5518H49.8574V38.1534H54.7045V44.5518ZM60.5818 42.2271C60.5818 42.9507 60.4162 43.5338 60.0852 43.9761C59.7541 44.4185 59.3059 44.6397 58.7405 44.6397C58.1633 44.6397 57.7092 44.4566 57.3782 44.0904V46.3799H56.5652V39.7969H57.3078L57.3474 40.3243C57.6785 39.9141 58.1384 39.709 58.7273 39.709C59.2986 39.709 59.7497 39.9244 60.0808 40.355C60.4148 40.7857 60.5818 41.3848 60.5818 42.1524V42.2271ZM59.7688 42.1348C59.7688 41.5987 59.6545 41.1754 59.426 40.8648C59.1975 40.5543 58.884 40.399 58.4856 40.399C57.9934 40.399 57.6243 40.6172 57.3782 41.0538V43.3257C57.6213 43.7593 57.9934 43.9761 58.4944 43.9761C58.884 43.9761 59.1931 43.8223 59.4216 43.5147C59.6531 43.2042 59.7688 42.7442 59.7688 42.1348ZM61.8536 42.1304C61.8536 41.6646 61.9444 41.2457 62.126 40.8736C62.3106 40.5015 62.5655 40.2144 62.8907 40.0123C63.2188 39.8101 63.5923 39.709 64.0113 39.709C64.6587 39.709 65.1817 39.9332 65.5801 40.3814C65.9815 40.8297 66.1822 41.4258 66.1822 42.17V42.2271C66.1822 42.69 66.0928 43.106 65.9141 43.4752C65.7383 43.8414 65.4849 44.127 65.1538 44.3321C64.8257 44.5372 64.4478 44.6397 64.0201 44.6397C63.3755 44.6397 62.8526 44.4156 62.4512 43.9673C62.0528 43.5191 61.8536 42.9258 61.8536 42.1876V42.1304ZM62.6709 42.2271C62.6709 42.7545 62.7925 43.1778 63.0357 43.4971C63.2818 43.8165 63.6099 43.9761 64.0201 43.9761C64.4331 43.9761 64.7613 43.815 65.0044 43.4927C65.2476 43.1675 65.3692 42.7134 65.3692 42.1304C65.3692 41.6089 65.2447 41.1871 64.9956 40.8648C64.7495 40.5396 64.4214 40.377 64.0113 40.377C63.6099 40.377 63.2862 40.5367 63.0401 40.856C62.794 41.1754 62.6709 41.6324 62.6709 42.2271ZM70.7279 39.7969H71.5409V44.5518H70.7279V41.0845L68.535 44.5518H67.722V39.7969H68.535V43.2686L70.7279 39.7969ZM75.9108 41.0977C75.9108 40.8751 75.8258 40.6993 75.6559 40.5704C75.486 40.4385 75.2531 40.3726 74.9572 40.3726C74.6701 40.3726 74.4298 40.4473 74.2365 40.5967C74.046 40.7462 73.9508 40.9219 73.9508 41.1241H73.1422C73.1422 40.711 73.3151 40.3726 73.6608 40.1089C74.0065 39.8453 74.4386 39.7134 74.9572 39.7134C75.5138 39.7134 75.9474 39.8336 76.2579 40.0738C76.5685 40.3111 76.7238 40.6509 76.7238 41.0933C76.7238 41.3072 76.6593 41.5035 76.5304 41.6822C76.4015 41.8609 76.2184 42.003 75.9811 42.1085C76.5348 42.296 76.8117 42.6651 76.8117 43.2159C76.8117 43.6524 76.6432 43.9981 76.3063 44.253C75.9694 44.5079 75.5197 44.6353 74.9572 44.6353C74.4093 44.6353 73.9567 44.502 73.5993 44.2354C73.2448 43.9659 73.0675 43.6026 73.0675 43.1456H73.8761C73.8761 43.377 73.9786 43.5762 74.1837 43.7432C74.3917 43.9073 74.6495 43.9893 74.9572 43.9893C75.2677 43.9893 75.5182 43.9175 75.7086 43.774C75.8991 43.6304 75.9943 43.4444 75.9943 43.2159C75.9943 42.9493 75.9137 42.7589 75.7526 42.6446C75.5944 42.5274 75.3468 42.4688 75.0099 42.4688H74.1969V41.7833H75.0802C75.6339 41.7686 75.9108 41.5401 75.9108 41.0977ZM78.3911 44.5518V39.7969H80.2455C80.8784 39.7969 81.3632 39.9083 81.7001 40.1309C82.04 40.3506 82.2099 40.6744 82.2099 41.1021C82.2099 41.3218 82.144 41.5211 82.0121 41.6998C81.8803 41.8755 81.6855 42.0103 81.4277 42.1041C81.7148 42.1714 81.9448 42.3033 82.1176 42.4996C82.2934 42.6959 82.3813 42.9302 82.3813 43.2027C82.3813 43.6392 82.2202 43.9732 81.8979 44.2047C81.5786 44.4361 81.1259 44.5518 80.54 44.5518H78.3911ZM79.204 42.4644V43.897H80.5488C80.8886 43.897 81.142 43.834 81.309 43.7081C81.4789 43.5821 81.5639 43.4048 81.5639 43.1763C81.5639 42.7017 81.2153 42.4644 80.518 42.4644H79.204ZM79.204 41.814H80.2543C81.0161 41.814 81.3969 41.5914 81.3969 41.1461C81.3969 40.7007 81.0366 40.4708 80.3159 40.4561H79.204V41.814ZM83.6926 42.1304C83.6926 41.6646 83.7834 41.2457 83.9651 40.8736C84.1496 40.5015 84.4045 40.2144 84.7297 40.0123C85.0578 39.8101 85.4314 39.709 85.8503 39.709C86.4978 39.709 87.0207 39.9332 87.4192 40.3814C87.8205 40.8297 88.0212 41.4258 88.0212 42.17V42.2271C88.0212 42.69 87.9319 43.106 87.7532 43.4752C87.5774 43.8414 87.324 44.127 86.9929 44.3321C86.6648 44.5372 86.2869 44.6397 85.8591 44.6397C85.2146 44.6397 84.6916 44.4156 84.2903 43.9673C83.8918 43.5191 83.6926 42.9258 83.6926 42.1876V42.1304ZM84.51 42.2271C84.51 42.7545 84.6316 43.1778 84.8747 43.4971C85.1208 43.8165 85.449 43.9761 85.8591 43.9761C86.2722 43.9761 86.6003 43.815 86.8435 43.4927C87.0867 43.1675 87.2082 42.7134 87.2082 42.1304C87.2082 41.6089 87.0837 41.1871 86.8347 40.8648C86.5886 40.5396 86.2605 40.377 85.8503 40.377C85.449 40.377 85.1252 40.5367 84.8791 40.856C84.633 41.1754 84.51 41.6324 84.51 42.2271ZM89.1348 43.8882L89.4161 43.5411C89.7325 43.1309 89.9126 42.5157 89.9566 41.6954L90.0313 39.7969H93.0943V43.8882H93.7051V45.9493H92.8921V44.5518H89.5743V45.9493H88.7613L88.7657 43.8882H89.1348ZM90.0972 43.8882H92.2813V40.5484H90.8179L90.7696 41.6822C90.7198 42.6285 90.4956 43.3638 90.0972 43.8882ZM96.9632 43.9761C97.2533 43.9761 97.5067 43.8882 97.7235 43.7125C97.9403 43.5367 98.0604 43.317 98.0838 43.0533H98.8529C98.8382 43.3257 98.7445 43.585 98.5716 43.8311C98.3988 44.0772 98.1673 44.2735 97.8773 44.42C97.5902 44.5665 97.2855 44.6397 96.9632 44.6397C96.3158 44.6397 95.8001 44.4244 95.4163 43.9937C95.0355 43.5601 94.8451 42.9683 94.8451 42.2183V42.0821C94.8451 41.6192 94.93 41.2076 95.0999 40.8472C95.2699 40.4869 95.513 40.2071 95.8294 40.0079C96.1488 39.8087 96.5252 39.709 96.9588 39.709C97.492 39.709 97.9344 39.8687 98.286 40.188C98.6405 40.5074 98.8294 40.9219 98.8529 41.4317H98.0838C98.0604 41.1241 97.9432 40.8721 97.7323 40.6758C97.5243 40.4766 97.2664 40.377 96.9588 40.377C96.5457 40.377 96.2249 40.5264 95.9964 40.8253C95.7708 41.1212 95.658 41.5504 95.658 42.1129V42.2667C95.658 42.8145 95.7708 43.2364 95.9964 43.5323C96.222 43.8282 96.5443 43.9761 96.9632 43.9761ZM103.75 40.4561H102.155V44.5518H101.342V40.4561H99.7775V39.7969H103.75V40.4561ZM105.066 44.5518V39.7969H106.92C107.553 39.7969 108.038 39.9083 108.375 40.1309C108.715 40.3506 108.885 40.6744 108.885 41.1021C108.885 41.3218 108.819 41.5211 108.687 41.6998C108.555 41.8755 108.36 42.0103 108.102 42.1041C108.39 42.1714 108.62 42.3033 108.792 42.4996C108.968 42.6959 109.056 42.9302 109.056 43.2027C109.056 43.6392 108.895 43.9732 108.573 44.2047C108.253 44.4361 107.801 44.5518 107.215 44.5518H105.066ZM105.879 42.4644V43.897H107.224C107.563 43.897 107.817 43.834 107.984 43.7081C108.154 43.5821 108.239 43.4048 108.239 43.1763C108.239 42.7017 107.89 42.4644 107.193 42.4644H105.879ZM105.879 41.814H106.929C107.691 41.814 108.072 41.5914 108.072 41.1461C108.072 40.7007 107.711 40.4708 106.991 40.4561H105.879V41.814ZM112.556 44.6397C111.911 44.6397 111.387 44.4288 110.983 44.0069C110.578 43.5821 110.376 43.0152 110.376 42.3062V42.1568C110.376 41.6851 110.466 41.2647 110.644 40.8956C110.826 40.5235 111.078 40.2335 111.4 40.0255C111.725 39.8145 112.077 39.709 112.455 39.709C113.073 39.709 113.553 39.9127 113.896 40.3199C114.239 40.7271 114.41 41.3101 114.41 42.0689V42.4073H111.189C111.201 42.876 111.337 43.2554 111.598 43.5455C111.862 43.8326 112.196 43.9761 112.6 43.9761C112.887 43.9761 113.13 43.9175 113.329 43.8004C113.529 43.6832 113.703 43.5279 113.852 43.3345L114.349 43.7213C113.95 44.3336 113.353 44.6397 112.556 44.6397ZM112.455 40.377C112.127 40.377 111.851 40.4971 111.629 40.7374C111.406 40.9747 111.268 41.3087 111.216 41.7393H113.597V41.6778C113.574 41.2647 113.463 40.9454 113.263 40.7198C113.064 40.4913 112.795 40.377 112.455 40.377ZM119.69 44.5518H118.877V42.5215H116.693V44.5518H115.876V39.7969H116.693V41.858H118.877V39.7969H119.69V44.5518ZM125.334 44.5518H124.521V42.5215H122.337V44.5518H121.52V39.7969H122.337V41.858H124.521V39.7969H125.334V44.5518ZM126.879 42.1304C126.879 41.6646 126.969 41.2457 127.151 40.8736C127.336 40.5015 127.59 40.2144 127.916 40.0123C128.244 39.8101 128.617 39.709 129.036 39.709C129.684 39.709 130.207 39.9332 130.605 40.3814C131.006 40.8297 131.207 41.4258 131.207 42.17V42.2271C131.207 42.69 131.118 43.106 130.939 43.4752C130.763 43.8414 130.51 44.127 130.179 44.3321C129.851 44.5372 129.473 44.6397 129.045 44.6397C128.401 44.6397 127.878 44.4156 127.476 43.9673C127.078 43.5191 126.879 42.9258 126.879 42.1876V42.1304ZM127.696 42.2271C127.696 42.7545 127.818 43.1778 128.061 43.4971C128.307 43.8165 128.635 43.9761 129.045 43.9761C129.458 43.9761 129.786 43.815 130.029 43.4927C130.273 43.1675 130.394 42.7134 130.394 42.1304C130.394 41.6089 130.27 41.1871 130.021 40.8648C129.775 40.5396 129.446 40.377 129.036 40.377C128.635 40.377 128.311 40.5367 128.065 40.856C127.819 41.1754 127.696 41.6324 127.696 42.2271ZM134.369 42.1656H132.224V41.502H134.369V42.1656ZM139.147 40.4561H137.552V44.5518H136.739V40.4561H135.175V39.7969H139.147V40.4561ZM139.988 42.1304C139.988 41.6646 140.079 41.2457 140.261 40.8736C140.445 40.5015 140.7 40.2144 141.025 40.0123C141.354 39.8101 141.727 39.709 142.146 39.709C142.793 39.709 143.316 39.9332 143.715 40.3814C144.116 40.8297 144.317 41.4258 144.317 42.17V42.2271C144.317 42.69 144.228 43.106 144.049 43.4752C143.873 43.8414 143.62 44.127 143.289 44.3321C142.96 44.5372 142.583 44.6397 142.155 44.6397C141.51 44.6397 140.987 44.4156 140.586 43.9673C140.188 43.5191 139.988 42.9258 139.988 42.1876V42.1304ZM140.806 42.2271C140.806 42.7545 140.927 43.1778 141.17 43.4971C141.417 43.8165 141.745 43.9761 142.155 43.9761C142.568 43.9761 142.896 43.815 143.139 43.4927C143.382 43.1675 143.504 42.7134 143.504 42.1304C143.504 41.6089 143.379 41.1871 143.13 40.8648C142.884 40.5396 142.556 40.377 142.146 40.377C141.745 40.377 141.421 40.5367 141.175 40.856C140.929 41.1754 140.806 41.6324 140.806 42.2271ZM149.803 42.2271C149.803 42.9507 149.638 43.5338 149.306 43.9761C148.975 44.4185 148.527 44.6397 147.962 44.6397C147.385 44.6397 146.931 44.4566 146.599 44.0904V46.3799H145.786V39.7969H146.529L146.569 40.3243C146.9 39.9141 147.36 39.709 147.949 39.709C148.52 39.709 148.971 39.9244 149.302 40.355C149.636 40.7857 149.803 41.3848 149.803 42.1524V42.2271ZM148.99 42.1348C148.99 41.5987 148.876 41.1754 148.647 40.8648C148.419 40.5543 148.105 40.399 147.707 40.399C147.215 40.399 146.846 40.6172 146.599 41.0538V43.3257C146.843 43.7593 147.215 43.9761 147.716 43.9761C148.105 43.9761 148.414 43.8223 148.643 43.5147C148.874 43.2042 148.99 42.7442 148.99 42.1348ZM154.362 40.4693H152.169V44.5518H151.352V39.7969H154.362V40.4693ZM155.216 42.1304C155.216 41.6646 155.307 41.2457 155.489 40.8736C155.673 40.5015 155.928 40.2144 156.253 40.0123C156.581 39.8101 156.955 39.709 157.374 39.709C158.021 39.709 158.544 39.9332 158.943 40.3814C159.344 40.8297 159.545 41.4258 159.545 42.17V42.2271C159.545 42.69 159.456 43.106 159.277 43.4752C159.101 43.8414 158.848 44.127 158.517 44.3321C158.188 44.5372 157.81 44.6397 157.383 44.6397C156.738 44.6397 156.215 44.4156 155.814 43.9673C155.415 43.5191 155.216 42.9258 155.216 42.1876V42.1304ZM156.034 42.2271C156.034 42.7545 156.155 43.1778 156.398 43.4971C156.644 43.8165 156.973 43.9761 157.383 43.9761C157.796 43.9761 158.124 43.815 158.367 43.4927C158.61 43.1675 158.732 42.7134 158.732 42.1304C158.732 41.6089 158.607 41.1871 158.358 40.8648C158.112 40.5396 157.784 40.377 157.374 40.377C156.973 40.377 156.649 40.5367 156.403 40.856C156.157 41.1754 156.034 41.6324 156.034 42.2271ZM161.089 44.5518V39.7969H162.944C163.576 39.7969 164.061 39.9083 164.398 40.1309C164.738 40.3506 164.908 40.6744 164.908 41.1021C164.908 41.3218 164.842 41.5211 164.71 41.6998C164.578 41.8755 164.384 42.0103 164.126 42.1041C164.413 42.1714 164.643 42.3033 164.816 42.4996C164.991 42.6959 165.079 42.9302 165.079 43.2027C165.079 43.6392 164.918 43.9732 164.596 44.2047C164.277 44.4361 163.824 44.5518 163.238 44.5518H161.089ZM161.902 42.4644V43.897H163.247C163.587 43.897 163.84 43.834 164.007 43.7081C164.177 43.5821 164.262 43.4048 164.262 43.1763C164.262 42.7017 163.913 42.4644 163.216 42.4644H161.902ZM161.902 41.814H162.952C163.714 41.814 164.095 41.5914 164.095 41.1461C164.095 40.7007 163.735 40.4708 163.014 40.4561H161.902V41.814ZM169.542 44.5518C169.495 44.4581 169.457 44.2911 169.427 44.0508C169.049 44.4434 168.598 44.6397 168.074 44.6397C167.605 44.6397 167.22 44.5079 166.918 44.2442C166.619 43.9776 166.47 43.6407 166.47 43.2335C166.47 42.7383 166.657 42.3546 167.032 42.0821C167.41 41.8067 167.94 41.669 168.623 41.669H169.414V41.2955C169.414 41.0113 169.329 40.7857 169.159 40.6187C168.989 40.4488 168.739 40.3638 168.408 40.3638C168.118 40.3638 167.875 40.4371 167.678 40.5836C167.482 40.73 167.384 40.9073 167.384 41.1153H166.566C166.566 40.878 166.65 40.6495 166.817 40.4297C166.987 40.2071 167.215 40.0313 167.502 39.9024C167.793 39.7735 168.11 39.709 168.456 39.709C169.004 39.709 169.433 39.8467 169.744 40.1221C170.054 40.3946 170.215 40.7711 170.227 41.2515V43.44C170.227 43.8765 170.283 44.2237 170.394 44.4815V44.5518H169.542ZM168.192 43.9322C168.447 43.9322 168.689 43.8663 168.918 43.7344C169.146 43.6026 169.312 43.4312 169.414 43.2203V42.2447H168.777C167.781 42.2447 167.283 42.5362 167.283 43.1192C167.283 43.3741 167.368 43.5733 167.538 43.7169C167.708 43.8604 167.926 43.9322 168.192 43.9322ZM175.586 39.7969V44.5518H174.768V42.7017H173.542L172.422 44.5518H171.543L172.738 42.5787C172.433 42.4673 172.199 42.296 172.035 42.0645C171.874 41.8301 171.793 41.5577 171.793 41.2471C171.793 40.8135 171.956 40.4649 172.281 40.2012C172.606 39.9346 173.041 39.7999 173.586 39.7969H175.586ZM172.611 41.2559C172.611 41.4874 172.69 41.6749 172.848 41.8184C173.006 41.959 173.216 42.0308 173.476 42.0338H174.768V40.4561H173.599C173.298 40.4561 173.057 40.5308 172.879 40.6802C172.7 40.8267 172.611 41.0186 172.611 41.2559ZM51.1713 53.5259H50.5781V55.5518H49.7607V50.7969H50.5781V52.8096H51.1098L52.7094 50.7969H53.6938L51.8129 53.0821L53.852 55.5518H52.8193L51.1713 53.5259ZM54.6887 53.1304C54.6887 52.6646 54.7795 52.2457 54.9612 51.8736C55.1457 51.5015 55.4006 51.2144 55.7258 51.0123C56.0539 50.8101 56.4275 50.709 56.8464 50.709C57.4939 50.709 58.0168 50.9332 58.4153 51.3814C58.8166 51.8297 59.0173 52.4258 59.0173 53.17V53.2271C59.0173 53.69 58.928 54.106 58.7493 54.4752C58.5735 54.8414 58.3201 55.127 57.989 55.3321C57.6609 55.5372 57.2829 55.6397 56.8552 55.6397C56.2107 55.6397 55.6877 55.4156 55.2864 54.9673C54.8879 54.5191 54.6887 53.9258 54.6887 53.1876V53.1304ZM55.5061 53.2271C55.5061 53.7545 55.6277 54.1778 55.8708 54.4971C56.1169 54.8165 56.4451 54.9761 56.8552 54.9761C57.2683 54.9761 57.5964 54.815 57.8396 54.4927C58.0828 54.1675 58.2043 53.7134 58.2043 53.1304C58.2043 52.6089 58.0798 52.1871 57.8308 51.8648C57.5847 51.5396 57.2566 51.377 56.8464 51.377C56.4451 51.377 56.1213 51.5367 55.8752 51.856C55.6291 52.1754 55.5061 52.6324 55.5061 53.2271ZM63.2246 54.4752L64.8418 50.7969H65.857V55.5518H65.044V52.0933L63.5059 55.5518H62.9434L61.3745 52.0186V55.5518H60.5616V50.7969H61.6162L63.2246 54.4752ZM71.5057 55.5518H70.6927V51.4693H68.5042V55.5518H67.6869V50.7969H71.5057V55.5518ZM76.1964 55.5518C76.1495 55.4581 76.1115 55.2911 76.0822 55.0508C75.7042 55.4434 75.2531 55.6397 74.7286 55.6397C74.2599 55.6397 73.8746 55.5079 73.5729 55.2442C73.2741 54.9776 73.1246 54.6407 73.1246 54.2335C73.1246 53.7383 73.3121 53.3546 73.6871 53.0821C74.0651 52.8067 74.5953 52.669 75.278 52.669H76.069V52.2955C76.069 52.0113 75.984 51.7857 75.8141 51.6187C75.6442 51.4488 75.3937 51.3638 75.0626 51.3638C74.7726 51.3638 74.5294 51.4371 74.3331 51.5836C74.1369 51.73 74.0387 51.9073 74.0387 52.1153H73.2213C73.2213 51.878 73.3048 51.6495 73.4718 51.4297C73.6417 51.2071 73.8703 51.0313 74.1574 50.9024C74.4474 50.7735 74.7653 50.709 75.111 50.709C75.6588 50.709 76.088 50.8467 76.3986 51.1221C76.7091 51.3946 76.8703 51.7711 76.882 52.2515V54.44C76.882 54.8765 76.9376 55.2237 77.049 55.4815V55.5518H76.1964ZM74.8473 54.9322C75.1022 54.9322 75.3439 54.8663 75.5724 54.7344C75.8009 54.6026 75.9664 54.4312 76.069 54.2203V53.2447H75.4318C74.4357 53.2447 73.9376 53.5362 73.9376 54.1192C73.9376 54.3741 74.0226 54.5733 74.1925 54.7169C74.3624 54.8604 74.5807 54.9322 74.8473 54.9322ZM82.4911 55.5518H81.6782V53.5215H79.4941V55.5518H78.6767V50.7969H79.4941V52.858H81.6782V50.7969H82.4911V55.5518ZM87.3269 50.7969H88.1399V55.5518H87.3269V52.0845L85.134 55.5518H84.321V50.7969H85.134V54.2686L87.3269 50.7969ZM93.5293 50.7969V55.5518H92.712V53.7017H91.4859L90.3653 55.5518H89.4864L90.6817 53.5787C90.377 53.4673 90.1426 53.296 89.9786 53.0645C89.8174 52.8301 89.7369 52.5577 89.7369 52.2471C89.7369 51.8135 89.8995 51.4649 90.2246 51.2012C90.5498 50.9346 90.9849 50.7999 91.5298 50.7969H93.5293ZM90.5542 52.2559C90.5542 52.4874 90.6333 52.6749 90.7915 52.8184C90.9497 52.959 91.1592 53.0308 91.42 53.0338H92.712V51.4561H91.543C91.2412 51.4561 91.001 51.5308 90.8223 51.6802C90.6436 51.8267 90.5542 52.0186 90.5542 52.2559Z" fill="#999999"/>
</svg>
